# xmcd
#
# Track frame offsets: 
#        150
#        22472
#        45344
#        61031
#        77705
#        103082
#        124337
#        147004
#        168411
#        189414
#        216834
#        232661
#        249312
#        266224
#        282722
#        297599
#        323347
#        339230
#
# Disc length: 4786 seconds
#
# Revision: 1
# Processed by: cddbd v1.5.2PL0 Copyright (c) Steve Scherf et al.
# Submitted via: ExactAudioCopy v1.3
#
DISCID=0812b012
DTITLE=Various Artist - Akella Presents - vol.60 - Electric Blues  CD
DTITLE=2
DYEAR=2016
DGENRE=Blues
TTITLE0=Bobby Rush and Dr John - Another Murder in New Orleans
TTITLE1=Dave Sadler - Rise Above
TTITLE2=Terry Davidson - Slow and Easy
TTITLE3=Lamon Cranston Blues Band - Cold Winds
TTITLE4=Willie May - By Degrees
TTITLE5=Too Slim And The Taildraggers - Ol Man Cole
TTITLE6=Jake Green Band - Broken Love
TTITLE7=Dan Doiron - Get These YaYas Out
TTITLE8=Ray Bonneville - Gust Of Wind
TTITLE9=Red Rooster - Crazy 'Bout You
TTITLE10=The Hoodoos - She's the One
TTITLE11=Nobby Reed Project - Hold The Truth
TTITLE12=Doobie Twisters - I Don't Want No Woman
TTITLE13=Mick Abrahams - Ain‘t No Love In The Heart Of The City
TTITLE14=The Kentucky Headhunters - She's Got To Have It
TTITLE15=Blinddog Smokin' - If I Died Today
TTITLE16=Mic Gillette Band - Unchain My Heart
TTITLE17=The James Hunter Six - Heartbreak
EXTD=
EXTT0=
EXTT1=
EXTT2=
EXTT3=
EXTT4=
EXTT5=
EXTT6=
EXTT7=
EXTT8=
EXTT9=
EXTT10=
EXTT11=
EXTT12=
EXTT13=
EXTT14=
EXTT15=
EXTT16=
EXTT17=
PLAYORDER=
